<?xml version="1.0" encoding="utf-8"?>
<!-- Generator: Adobe Illustrator 23.0.3, SVG Export Plug-In . SVG Version: 6.00 Build 0)  -->
<svg version="1.1" id="Layer_1" xmlns="http://www.w3.org/2000/svg" xmlns:xlink="http://www.w3.org/1999/xlink" x="0px" y="0px"
	 viewBox="0 0 267 80.8" style="enable-background:new 0 0 267 80.8;" xml:space="preserve">
<style type="text/css">
	.st0{fill:#F07522;}
	.st1{fill:#62CBC9;}
</style>
<title>Asset 2</title>
<g>
	<g>
		<g>
			<path class="st0" d="M51.9,26.5h-3.3v8.6h-2v-8.6h-3.3v-1.8h8.6V26.5z"/>
			<path class="st0" d="M62.1,24.7v10.3h-2v-4.4h-4.7v4.4h-2V24.7h2v4.2h4.7v-4.2H62.1z"/>
			<path class="st0" d="M71.7,33.3v1.8h-7.2V24.7h7v1.8h-5V29h4.3v1.6h-4.3v2.7H71.7z"/>
			<path class="st0" d="M85.8,35.1v-6.8l-2.7,5.1H82l-2.7-5.1v6.8h-2V24.7h2.1l3.1,5.9l3.1-5.9h2.1v10.3H85.8z"/>
			<path class="st0" d="M94.6,33.4c0.5,0,0.9-0.1,1.2-0.3c0.3-0.2,0.6-0.4,0.8-0.8c0.2-0.3,0.3-0.7,0.4-1.1c0.1-0.4,0.1-0.8,0.1-1.2
				v-5.3h2V30c0,0.7-0.1,1.4-0.3,2c-0.2,0.6-0.4,1.2-0.8,1.6c-0.4,0.5-0.8,0.8-1.4,1.1c-0.6,0.3-1.3,0.4-2,0.4
				c-0.8,0-1.5-0.1-2.1-0.4c-0.6-0.3-1-0.7-1.4-1.1c-0.4-0.5-0.6-1-0.8-1.6c-0.2-0.6-0.2-1.3-0.2-1.9v-5.3h2V30c0,0.4,0,0.9,0.1,1.3
				c0.1,0.4,0.2,0.8,0.4,1.1c0.2,0.3,0.5,0.6,0.8,0.7C93.7,33.3,94.1,33.4,94.6,33.4z"/>
			<path class="st0" d="M101.4,35.1V24.7h2v8.6h5.3v1.8H101.4z"/>
			<path class="st0" d="M116.2,26.5h-3.3v8.6h-2v-8.6h-3.3v-1.8h8.6V26.5z"/>
			<path class="st0" d="M117.8,35.1V24.7h2v10.3H117.8z"/>
			<path class="st0" d="M130.6,35.1v-6.8l-2.7,5.1h-1.1l-2.7-5.1v6.8h-2V24.7h2.1l3.1,5.9l3.1-5.9h2.1v10.3H130.6z"/>
			<path class="st0" d="M139.5,35.1c-0.8,0-1.4-0.1-2.1-0.4c-0.6-0.3-1.1-0.7-1.6-1.2c-0.4-0.5-0.8-1-1-1.7
				c-0.2-0.6-0.4-1.3-0.4-1.9c0-0.7,0.1-1.3,0.4-2c0.3-0.6,0.6-1.2,1.1-1.7c0.5-0.5,1-0.9,1.6-1.2c0.6-0.3,1.3-0.4,2-0.4
				c0.7,0,1.4,0.2,2,0.5c0.6,0.3,1.1,0.7,1.6,1.2c0.4,0.5,0.8,1.1,1,1.7s0.4,1.3,0.4,1.9c0,0.7-0.1,1.3-0.4,2
				c-0.3,0.6-0.6,1.2-1,1.7c-0.4,0.5-1,0.9-1.6,1.1C140.9,35,140.2,35.1,139.5,35.1z M136.5,29.9c0,0.4,0.1,0.9,0.2,1.3
				c0.1,0.4,0.3,0.8,0.6,1.1c0.3,0.3,0.6,0.6,0.9,0.8c0.4,0.2,0.8,0.3,1.3,0.3c0.5,0,0.9-0.1,1.3-0.3c0.4-0.2,0.7-0.5,0.9-0.8
				c0.3-0.3,0.5-0.7,0.6-1.1c0.1-0.4,0.2-0.8,0.2-1.3c0-0.4-0.1-0.9-0.2-1.3c-0.1-0.4-0.3-0.8-0.6-1.1s-0.6-0.6-0.9-0.8
				s-0.8-0.3-1.3-0.3c-0.5,0-0.9,0.1-1.3,0.3c-0.4,0.2-0.7,0.5-0.9,0.8c-0.3,0.3-0.4,0.7-0.6,1.1C136.5,29.1,136.5,29.5,136.5,29.9z
				"/>
			<path class="st0" d="M146.3,35.1V24.7h3.7c0.8,0,1.6,0.1,2.2,0.4c0.6,0.3,1.2,0.6,1.6,1.1c0.4,0.5,0.7,1,1,1.6
				c0.2,0.6,0.3,1.3,0.3,2c0,0.8-0.1,1.5-0.4,2.1c-0.2,0.6-0.6,1.2-1,1.6c-0.4,0.5-1,0.8-1.6,1c-0.6,0.2-1.3,0.4-2.1,0.4H146.3z
				 M153.1,29.9c0-0.5-0.1-0.9-0.2-1.4c-0.1-0.4-0.3-0.8-0.6-1.1c-0.3-0.3-0.6-0.5-1-0.7c-0.4-0.2-0.8-0.2-1.3-0.2h-1.7v6.8h1.7
				c0.5,0,0.9-0.1,1.3-0.3c0.4-0.2,0.7-0.4,1-0.7c0.3-0.3,0.5-0.7,0.6-1.1C153.1,30.8,153.1,30.4,153.1,29.9z"/>
			<path class="st0" d="M159.6,24.7h1.8l3.9,10.3h-2.1l-1-2.6h-3.6l-0.9,2.6h-2.1L159.6,24.7z M161.9,31.1l-1.4-4.1l-1.5,4.1H161.9z
				"/>
			<path class="st0" d="M166.7,35.1V24.7h2v8.6h5.3v1.8H166.7z"/>
			<path class="st0" d="M44.2,51.9V41.6h4.6c0.5,0,0.9,0.1,1.3,0.3c0.4,0.2,0.7,0.5,1,0.8c0.3,0.3,0.5,0.7,0.7,1.1
				C52,44.2,52,44.6,52,45c0,0.7-0.2,1.3-0.5,1.8c-0.3,0.5-0.8,0.9-1.4,1.2l2.4,3.9h-2.3l-2.1-3.5h-2v3.5H44.2z M46.2,46.7h2.5
				c0.2,0,0.4,0,0.5-0.1c0.2-0.1,0.3-0.2,0.4-0.4c0.1-0.1,0.2-0.3,0.3-0.5C50,45.5,50,45.3,50,45c0-0.2,0-0.5-0.1-0.7
				c-0.1-0.2-0.2-0.4-0.3-0.5c-0.1-0.1-0.3-0.3-0.5-0.3c-0.2-0.1-0.3-0.1-0.5-0.1h-2.4V46.7z"/>
			<path class="st0" d="M61.3,50.1v1.8h-7.2V41.6h7v1.8h-5v2.5h4.3v1.6h-4.3v2.7H61.3z"/>
			<path class="st0" d="M70.1,50.7c-0.8,0.8-1.8,1.2-2.9,1.2c-0.7,0-1.3-0.1-1.9-0.4c-0.6-0.3-1.1-0.6-1.6-1.1c-0.4-0.5-0.8-1-1-1.7
				c-0.3-0.6-0.4-1.3-0.4-2.1c0-0.7,0.1-1.4,0.4-2c0.3-0.6,0.6-1.2,1.1-1.6s1-0.8,1.6-1.1c0.6-0.3,1.3-0.4,2-0.4
				c1,0,1.8,0.2,2.5,0.6c0.7,0.4,1.2,1,1.6,1.6l-1.5,1.1c-0.3-0.5-0.6-0.9-1.1-1.2c-0.5-0.3-1-0.4-1.5-0.4c-0.4,0-0.8,0.1-1.2,0.3
				c-0.4,0.2-0.7,0.4-0.9,0.8c-0.3,0.3-0.5,0.7-0.6,1.1c-0.1,0.4-0.2,0.9-0.2,1.3c0,0.5,0.1,0.9,0.2,1.4c0.2,0.4,0.4,0.8,0.6,1.1
				c0.3,0.3,0.6,0.6,1,0.7c0.4,0.2,0.8,0.3,1.2,0.3c1,0,1.9-0.5,2.7-1.4v-0.7H68v-1.5h3.7v5.3h-1.7V50.7z"/>
			<path class="st0" d="M73.8,51.9V41.6h2v10.3H73.8z"/>
			<path class="st0" d="M82.6,52c-0.8,0-1.4-0.1-2.1-0.4c-0.6-0.3-1.1-0.7-1.6-1.2c-0.4-0.5-0.8-1-1-1.7c-0.2-0.6-0.4-1.3-0.4-1.9
				c0-0.7,0.1-1.3,0.4-2c0.3-0.6,0.6-1.2,1.1-1.7c0.5-0.5,1-0.9,1.6-1.2c0.6-0.3,1.3-0.4,2-0.4c0.7,0,1.4,0.2,2,0.5
				c0.6,0.3,1.1,0.7,1.6,1.2c0.4,0.5,0.8,1.1,1,1.7c0.2,0.6,0.4,1.3,0.4,1.9c0,0.7-0.1,1.3-0.4,2c-0.3,0.6-0.6,1.2-1,1.7
				c-0.4,0.5-1,0.9-1.6,1.1C84,51.8,83.3,52,82.6,52z M79.6,46.7c0,0.4,0.1,0.9,0.2,1.3c0.1,0.4,0.3,0.8,0.6,1.1
				c0.3,0.3,0.6,0.6,0.9,0.8c0.4,0.2,0.8,0.3,1.3,0.3c0.5,0,0.9-0.1,1.3-0.3c0.4-0.2,0.7-0.5,0.9-0.8c0.3-0.3,0.5-0.7,0.6-1.1
				c0.1-0.4,0.2-0.8,0.2-1.3c0-0.4-0.1-0.9-0.2-1.3c-0.1-0.4-0.3-0.8-0.6-1.1c-0.3-0.3-0.6-0.6-0.9-0.8c-0.4-0.2-0.8-0.3-1.3-0.3
				c-0.5,0-0.9,0.1-1.3,0.3c-0.4,0.2-0.7,0.5-0.9,0.8c-0.3,0.3-0.4,0.7-0.6,1.1C79.7,45.9,79.6,46.3,79.6,46.7z"/>
			<path class="st0" d="M91.5,45.3v6.6h-2V41.6H91l5.4,6.8v-6.8h2v10.3h-1.6L91.5,45.3z"/>
			<path class="st0" d="M103.8,41.6h1.8l3.9,10.3h-2.1l-1-2.6h-3.6l-0.9,2.6h-2.1L103.8,41.6z M106.1,47.9l-1.4-4.1l-1.5,4.1H106.1z
				"/>
			<path class="st0" d="M110.9,51.9V41.6h2v8.6h5.3v1.8H110.9z"/>
			<path class="st0" d="M122.4,46.7c0-0.6,0.1-1.3,0.3-1.9c0.2-0.6,0.6-1.2,1-1.6c0.4-0.5,1-0.9,1.6-1.2c0.6-0.3,1.3-0.5,2.1-0.5
				c0.9,0,1.8,0.2,2.5,0.6c0.7,0.4,1.2,1,1.5,1.6l-1.5,1.1c-0.1-0.3-0.3-0.5-0.5-0.7c-0.2-0.2-0.4-0.4-0.6-0.5
				c-0.2-0.1-0.5-0.2-0.7-0.3s-0.5-0.1-0.7-0.1c-0.5,0-0.9,0.1-1.3,0.3c-0.4,0.2-0.7,0.5-0.9,0.8c-0.2,0.3-0.4,0.7-0.6,1.1
				c-0.1,0.4-0.2,0.8-0.2,1.2c0,0.5,0.1,0.9,0.2,1.3c0.1,0.4,0.4,0.8,0.6,1.1c0.3,0.3,0.6,0.6,1,0.8c0.4,0.2,0.8,0.3,1.2,0.3
				c0.2,0,0.5,0,0.7-0.1c0.3-0.1,0.5-0.1,0.7-0.3c0.2-0.1,0.4-0.3,0.6-0.5c0.2-0.2,0.3-0.4,0.5-0.7l1.6,0.9c-0.2,0.4-0.4,0.7-0.7,1
				c-0.3,0.3-0.6,0.5-1,0.7c-0.4,0.2-0.8,0.4-1.2,0.5c-0.4,0.1-0.9,0.2-1.3,0.2c-0.7,0-1.4-0.2-2-0.5c-0.6-0.3-1.1-0.7-1.6-1.2
				c-0.4-0.5-0.8-1.1-1-1.7C122.6,48,122.4,47.3,122.4,46.7z"/>
			<path class="st0" d="M137.6,52c-0.8,0-1.4-0.1-2.1-0.4c-0.6-0.3-1.1-0.7-1.6-1.2c-0.4-0.5-0.8-1-1-1.7c-0.2-0.6-0.4-1.3-0.4-1.9
				c0-0.7,0.1-1.3,0.4-2c0.3-0.6,0.6-1.2,1.1-1.7c0.5-0.5,1-0.9,1.6-1.2c0.6-0.3,1.3-0.4,2-0.4c0.7,0,1.4,0.2,2,0.5
				c0.6,0.3,1.1,0.7,1.6,1.2c0.4,0.5,0.8,1.1,1,1.7c0.2,0.6,0.4,1.3,0.4,1.9c0,0.7-0.1,1.3-0.4,2c-0.3,0.6-0.6,1.2-1,1.7
				c-0.4,0.5-1,0.9-1.6,1.1C139,51.8,138.3,52,137.6,52z M134.6,46.7c0,0.4,0.1,0.9,0.2,1.3c0.1,0.4,0.3,0.8,0.6,1.1
				c0.3,0.3,0.6,0.6,0.9,0.8c0.4,0.2,0.8,0.3,1.3,0.3c0.5,0,0.9-0.1,1.3-0.3c0.4-0.2,0.7-0.5,0.9-0.8c0.3-0.3,0.5-0.7,0.6-1.1
				c0.1-0.4,0.2-0.8,0.2-1.3c0-0.4-0.1-0.9-0.2-1.3c-0.1-0.4-0.3-0.8-0.6-1.1c-0.3-0.3-0.6-0.6-0.9-0.8c-0.4-0.2-0.8-0.3-1.3-0.3
				c-0.5,0-0.9,0.1-1.3,0.3c-0.4,0.2-0.7,0.5-0.9,0.8c-0.3,0.3-0.4,0.7-0.6,1.1C134.7,45.9,134.6,46.3,134.6,46.7z"/>
			<path class="st0" d="M144.2,51.9V41.6h4.6c0.5,0,0.9,0.1,1.3,0.3c0.4,0.2,0.7,0.5,1,0.8c0.3,0.3,0.5,0.7,0.7,1.1
				c0.2,0.4,0.2,0.8,0.2,1.2c0,0.7-0.2,1.3-0.5,1.8c-0.3,0.5-0.8,0.9-1.4,1.2l2.4,3.9h-2.3l-2.1-3.5h-2v3.5H144.2z M146.2,46.7h2.5
				c0.2,0,0.4,0,0.5-0.1c0.2-0.1,0.3-0.2,0.4-0.4c0.1-0.1,0.2-0.3,0.3-0.5c0.1-0.2,0.1-0.4,0.1-0.7c0-0.2,0-0.5-0.1-0.7
				c-0.1-0.2-0.2-0.4-0.3-0.5c-0.1-0.1-0.3-0.3-0.5-0.3c-0.2-0.1-0.3-0.1-0.5-0.1h-2.4V46.7z"/>
			<path class="st0" d="M154.1,51.9V41.6h4.6c0.5,0,0.9,0.1,1.3,0.3c0.4,0.2,0.7,0.5,1,0.8c0.3,0.3,0.5,0.7,0.7,1.1
				c0.2,0.4,0.2,0.8,0.2,1.2c0,0.7-0.2,1.3-0.5,1.8c-0.3,0.5-0.8,0.9-1.4,1.2l2.4,3.9h-2.3l-2.1-3.5h-2v3.5H154.1z M156.1,46.7h2.5
				c0.2,0,0.4,0,0.5-0.1c0.2-0.1,0.3-0.2,0.4-0.4c0.1-0.1,0.2-0.3,0.3-0.5c0.1-0.2,0.1-0.4,0.1-0.7c0-0.2,0-0.5-0.1-0.7
				c-0.1-0.2-0.2-0.4-0.3-0.5c-0.1-0.1-0.3-0.3-0.5-0.3c-0.2-0.1-0.3-0.1-0.5-0.1h-2.4V46.7z"/>
			<path class="st0" d="M164.1,51.9V41.6h2v10.3H164.1z"/>
			<path class="st0" d="M168.5,51.9V41.6h3.7c0.8,0,1.6,0.1,2.2,0.4c0.6,0.3,1.2,0.6,1.6,1.1c0.4,0.5,0.7,1,1,1.6
				c0.2,0.6,0.3,1.3,0.3,2c0,0.8-0.1,1.5-0.4,2.1c-0.2,0.6-0.6,1.2-1,1.6c-0.4,0.5-1,0.8-1.6,1c-0.6,0.2-1.3,0.4-2.1,0.4H168.5z
				 M175.3,46.7c0-0.5-0.1-0.9-0.2-1.4c-0.1-0.4-0.3-0.8-0.6-1.1c-0.3-0.3-0.6-0.5-1-0.7c-0.4-0.2-0.8-0.2-1.3-0.2h-1.7v6.8h1.7
				c0.5,0,0.9-0.1,1.3-0.3c0.4-0.2,0.7-0.4,1-0.7c0.3-0.3,0.5-0.7,0.6-1.1C175.3,47.7,175.3,47.2,175.3,46.7z"/>
			<path class="st0" d="M183.6,52c-0.8,0-1.4-0.1-2.1-0.4c-0.6-0.3-1.1-0.7-1.6-1.2c-0.4-0.5-0.8-1-1-1.7c-0.2-0.6-0.4-1.3-0.4-1.9
				c0-0.7,0.1-1.3,0.4-2c0.3-0.6,0.6-1.2,1.1-1.7c0.5-0.5,1-0.9,1.6-1.2c0.6-0.3,1.3-0.4,2-0.4c0.7,0,1.4,0.2,2,0.5
				c0.6,0.3,1.1,0.7,1.6,1.2c0.4,0.5,0.8,1.1,1,1.7c0.2,0.6,0.4,1.3,0.4,1.9c0,0.7-0.1,1.3-0.4,2c-0.3,0.6-0.6,1.2-1,1.7
				c-0.4,0.5-1,0.9-1.6,1.1C185,51.8,184.4,52,183.6,52z M180.6,46.7c0,0.4,0.1,0.9,0.2,1.3c0.1,0.4,0.3,0.8,0.6,1.1
				c0.3,0.3,0.6,0.6,0.9,0.8c0.4,0.2,0.8,0.3,1.3,0.3c0.5,0,0.9-0.1,1.3-0.3c0.4-0.2,0.7-0.5,0.9-0.8c0.3-0.3,0.5-0.7,0.6-1.1
				c0.1-0.4,0.2-0.8,0.2-1.3c0-0.4-0.1-0.9-0.2-1.3c-0.1-0.4-0.3-0.8-0.6-1.1c-0.3-0.3-0.6-0.6-0.9-0.8c-0.4-0.2-0.8-0.3-1.3-0.3
				c-0.5,0-0.9,0.1-1.3,0.3c-0.4,0.2-0.7,0.5-0.9,0.8c-0.3,0.3-0.4,0.7-0.6,1.1C180.7,45.9,180.6,46.3,180.6,46.7z"/>
			<path class="st0" d="M190.2,51.9V41.6h4.6c0.5,0,0.9,0.1,1.3,0.3c0.4,0.2,0.7,0.5,1,0.8c0.3,0.3,0.5,0.7,0.7,1.1
				c0.2,0.4,0.2,0.8,0.2,1.2c0,0.7-0.2,1.3-0.5,1.8c-0.3,0.5-0.8,0.9-1.4,1.2l2.4,3.9h-2.3l-2.1-3.5h-2v3.5H190.2z M192.2,46.7h2.5
				c0.2,0,0.4,0,0.5-0.1c0.2-0.1,0.3-0.2,0.4-0.4c0.1-0.1,0.2-0.3,0.3-0.5c0.1-0.2,0.1-0.4,0.1-0.7c0-0.2,0-0.5-0.1-0.7
				c-0.1-0.2-0.2-0.4-0.3-0.5c-0.1-0.1-0.3-0.3-0.5-0.3c-0.2-0.1-0.3-0.1-0.5-0.1h-2.4V46.7z"/>
			<path class="st0" d="M203.9,51.9V41.6h4.4c0.5,0,0.9,0.1,1.3,0.3c0.4,0.2,0.7,0.5,1,0.8c0.3,0.3,0.5,0.7,0.7,1.1
				c0.2,0.4,0.2,0.8,0.2,1.2c0,0.4-0.1,0.9-0.2,1.3c-0.2,0.4-0.4,0.8-0.7,1.1c-0.3,0.3-0.6,0.6-1,0.8c-0.4,0.2-0.8,0.3-1.3,0.3h-2.4
				v3.5H203.9z M205.9,46.7h2.3c0.4,0,0.7-0.1,0.9-0.5c0.2-0.3,0.4-0.7,0.4-1.2c0-0.3,0-0.5-0.1-0.7c-0.1-0.2-0.2-0.4-0.3-0.5
				s-0.3-0.3-0.4-0.3c-0.2-0.1-0.3-0.1-0.5-0.1h-2.2V46.7z"/>
			<path class="st0" d="M213,51.9V41.6h2v8.6h5.3v1.8H213z"/>
			<path class="st0" d="M224.7,41.6h1.8l3.9,10.3h-2.1l-1-2.6h-3.6l-0.9,2.6h-2.1L224.7,41.6z M227,47.9l-1.4-4.1l-1.5,4.1H227z"/>
			<path class="st0" d="M233.5,45.3v6.6h-2V41.6h1.6l5.4,6.8v-6.8h2v10.3h-1.6L233.5,45.3z"/>
			<path class="st1" d="M45,62h-1l0.2-0.8h1l0-0.2c0.1-0.5,0.2-0.9,0.4-1.2c0.2-0.4,0.4-0.7,0.6-0.9s0.5-0.5,0.8-0.6
				c0.3-0.1,0.6-0.2,1-0.2c0.3,0,0.5,0,0.8,0.1c0.2,0.1,0.5,0.2,0.6,0.3L49,59.2c-0.1-0.1-0.2-0.2-0.4-0.2c-0.2-0.1-0.4-0.1-0.5-0.1
				c-0.4,0-0.8,0.2-1.1,0.5s-0.5,0.9-0.7,1.6l0,0.2h2L48,62h-2l-2.1,9.9h-1L45,62z"/>
			<path class="st1" d="M51,68.9c-0.4,0-0.8-0.1-1.2-0.3c-0.4-0.2-0.7-0.4-0.9-0.7c-0.2-0.3-0.4-0.6-0.6-1c-0.1-0.4-0.2-0.8-0.2-1.2
				c0-0.6,0.1-1.2,0.4-1.8c0.2-0.6,0.6-1.1,1-1.5c0.4-0.4,0.9-0.8,1.4-1c0.5-0.3,1.1-0.4,1.7-0.4c0.4,0,0.8,0.1,1.2,0.3
				c0.3,0.2,0.6,0.4,0.9,0.7c0.2,0.3,0.4,0.6,0.6,1c0.1,0.4,0.2,0.8,0.2,1.2c0,0.6-0.1,1.2-0.4,1.7c-0.2,0.6-0.6,1.1-1,1.5
				c-0.4,0.4-0.9,0.8-1.4,1C52.2,68.8,51.6,68.9,51,68.9z M51.2,68c0.4,0,0.8-0.1,1.2-0.3c0.4-0.2,0.8-0.5,1.1-0.8
				c0.3-0.3,0.6-0.7,0.8-1.2c0.2-0.4,0.3-0.9,0.3-1.4c0-0.3,0-0.7-0.1-1c-0.1-0.3-0.2-0.6-0.4-0.8c-0.2-0.2-0.4-0.4-0.6-0.5
				c-0.2-0.1-0.5-0.2-0.8-0.2c-0.4,0-0.8,0.1-1.2,0.3c-0.4,0.2-0.7,0.5-1.1,0.8c-0.3,0.3-0.6,0.7-0.8,1.2c-0.2,0.4-0.3,0.9-0.3,1.4
				c0,0.3,0,0.7,0.1,1c0.1,0.3,0.2,0.6,0.4,0.8c0.2,0.2,0.4,0.4,0.6,0.5C50.6,68,50.9,68,51.2,68z"/>
			<path class="st1" d="M57.9,61.2h0.9L58.4,63c0.4-0.6,0.8-1,1.3-1.3c0.5-0.3,1-0.5,1.5-0.5c0.1,0,0.1,0,0.2,0s0.1,0,0.2,0
				l-0.2,0.9c-0.6,0-1.2,0.2-1.8,0.6c-0.5,0.3-1,0.8-1.3,1.4l-1,4.7h-1L57.9,61.2z"/>
			<path class="st1" d="M68.8,58.4h1.8l3.9,10.3h-2.1l-1-2.6h-3.6l-0.9,2.6h-2.1L68.8,58.4z M71.1,64.8l-1.4-4.1l-1.5,4.1H71.1z"/>
			<path class="st1" d="M75.9,68.8V58.4h4.6c0.5,0,0.9,0.1,1.3,0.3c0.4,0.2,0.7,0.5,1,0.8c0.3,0.3,0.5,0.7,0.7,1.1
				c0.2,0.4,0.2,0.8,0.2,1.2c0,0.7-0.2,1.3-0.5,1.8c-0.3,0.5-0.8,0.9-1.4,1.2l2.4,3.9H82l-2.1-3.5h-2v3.5H75.9z M77.9,63.5h2.5
				c0.2,0,0.4,0,0.5-0.1c0.2-0.1,0.3-0.2,0.4-0.4c0.1-0.1,0.2-0.3,0.3-0.5c0.1-0.2,0.1-0.4,0.1-0.7c0-0.2,0-0.5-0.1-0.7
				c-0.1-0.2-0.2-0.4-0.3-0.5c-0.1-0.1-0.3-0.3-0.5-0.3c-0.2-0.1-0.3-0.1-0.5-0.1h-2.4V63.5z"/>
			<path class="st1" d="M85.5,68.8V58.4h4.6c0.5,0,0.9,0.1,1.3,0.3c0.4,0.2,0.7,0.5,1,0.8c0.3,0.3,0.5,0.7,0.7,1.1
				c0.2,0.4,0.2,0.8,0.2,1.2c0,0.7-0.2,1.3-0.5,1.8c-0.3,0.5-0.8,0.9-1.4,1.2l2.4,3.9h-2.3l-2.1-3.5h-2v3.5H85.5z M87.5,63.5H90
				c0.2,0,0.4,0,0.5-0.1c0.2-0.1,0.3-0.2,0.4-0.4c0.1-0.1,0.2-0.3,0.3-0.5c0.1-0.2,0.1-0.4,0.1-0.7c0-0.2,0-0.5-0.1-0.7
				c-0.1-0.2-0.2-0.4-0.3-0.5c-0.1-0.1-0.3-0.3-0.5-0.3c-0.2-0.1-0.3-0.1-0.5-0.1h-2.4V63.5z"/>
			<path class="st1" d="M99.9,68.8c-0.8,0-1.4-0.1-2.1-0.4c-0.6-0.3-1.1-0.7-1.6-1.2c-0.4-0.5-0.8-1-1-1.7c-0.2-0.6-0.4-1.3-0.4-1.9
				c0-0.7,0.1-1.3,0.4-2c0.3-0.6,0.6-1.2,1.1-1.7c0.5-0.5,1-0.9,1.6-1.2c0.6-0.3,1.3-0.4,2-0.4c0.7,0,1.4,0.2,2,0.5
				c0.6,0.3,1.1,0.7,1.6,1.2c0.4,0.5,0.8,1.1,1,1.7c0.2,0.6,0.4,1.3,0.4,1.9c0,0.7-0.1,1.3-0.4,2c-0.3,0.6-0.6,1.2-1,1.7
				c-0.4,0.5-1,0.9-1.6,1.1C101.3,68.7,100.6,68.8,99.9,68.8z M96.9,63.6c0,0.4,0.1,0.9,0.2,1.3c0.1,0.4,0.3,0.8,0.6,1.1
				c0.3,0.3,0.6,0.6,0.9,0.8c0.4,0.2,0.8,0.3,1.3,0.3c0.5,0,0.9-0.1,1.3-0.3c0.4-0.2,0.7-0.5,0.9-0.8c0.3-0.3,0.5-0.7,0.6-1.1
				c0.1-0.4,0.2-0.8,0.2-1.3c0-0.4-0.1-0.9-0.2-1.3c-0.1-0.4-0.3-0.8-0.6-1.1c-0.3-0.3-0.6-0.6-0.9-0.8c-0.4-0.2-0.8-0.3-1.3-0.3
				c-0.5,0-0.9,0.1-1.3,0.3c-0.4,0.2-0.7,0.5-0.9,0.8c-0.3,0.3-0.4,0.7-0.6,1.1C97,62.8,96.9,63.2,96.9,63.6z"/>
			<path class="st1" d="M109.9,58.5h1.8l1.2,3.4l1.2-3.4h1.9l-1.8,4.7l1.3,3.3l2.9-8h2.2l-4.2,10.3h-1.7l-1.8-4.3l-1.8,4.3h-1.7
				l-4.2-10.3h2.1l2.9,8l1.3-3.3L109.9,58.5z"/>
			<path class="st1" d="M133.9,58.4v10.3h-2v-4.4h-4.7v4.4h-2V58.4h2v4.2h4.7v-4.2H133.9z"/>
			<path class="st1" d="M136.4,68.8V58.4h2v10.3H136.4z"/>
			<path class="st1" d="M148,67.6c-0.8,0.8-1.8,1.2-2.9,1.2c-0.7,0-1.3-0.1-1.9-0.4c-0.6-0.3-1.1-0.6-1.6-1.1c-0.4-0.5-0.8-1-1-1.7
				c-0.3-0.6-0.4-1.3-0.4-2.1c0-0.7,0.1-1.4,0.4-2s0.6-1.2,1.1-1.6c0.5-0.5,1-0.8,1.6-1.1c0.6-0.3,1.3-0.4,2-0.4
				c1,0,1.8,0.2,2.5,0.6c0.7,0.4,1.2,1,1.6,1.6l-1.5,1.1c-0.3-0.5-0.6-0.9-1.1-1.2c-0.5-0.3-1-0.4-1.5-0.4c-0.4,0-0.8,0.1-1.2,0.3
				c-0.4,0.2-0.7,0.4-0.9,0.8c-0.3,0.3-0.5,0.7-0.6,1.1c-0.1,0.4-0.2,0.9-0.2,1.3c0,0.5,0.1,0.9,0.2,1.4c0.2,0.4,0.4,0.8,0.6,1.1
				c0.3,0.3,0.6,0.6,1,0.7c0.4,0.2,0.8,0.3,1.2,0.3c1,0,1.9-0.5,2.7-1.4v-0.7h-2.1v-1.5h3.7v5.3H148V67.6z"/>
			<path class="st1" d="M160.3,58.4v10.3h-2v-4.4h-4.7v4.4h-2V58.4h2v4.2h4.7v-4.2H160.3z"/>
			<path class="st1" d="M166.3,58.5h1.8l1.2,3.4l1.2-3.4h1.9l-1.8,4.7l1.3,3.3l2.9-8h2.2l-4.2,10.3h-1.7l-1.8-4.3l-1.8,4.3h-1.7
				l-4.2-10.3h2.1l2.9,8l1.3-3.3L166.3,58.5z"/>
			<path class="st1" d="M180.1,58.4h1.8l3.9,10.3h-2.1l-1-2.6h-3.6l-0.9,2.6h-2.1L180.1,58.4z M182.4,64.8l-1.4-4.1l-1.5,4.1H182.4z
				"/>
			<path class="st1" d="M186.9,58.4l2.5,5l2.6-5h2.2l-3.7,6.7v3.6h-2v-3.6l-3.7-6.7H186.9z"/>
		</g>
		<g>
			<polygon class="st1" points="33.1,74.8 32,74.8 32,14.4 38.9,12.8 38.9,7.9 60.3,1.2 81.6,7.9 81.6,12.8 88.5,14.4 88.2,15.5 
				80.5,13.7 80.5,8.7 60.3,2.4 40,8.7 40,13.7 33.1,15.3 			"/>
		</g>
		<g>
			<polygon class="st1" points="205.3,79.8 91.8,79.8 91.8,78.7 204.2,78.7 204.2,58.4 205.3,58.4 			"/>
		</g>
	</g>
</g>
</svg>
